<?xml version="1.0" standalone="no"?>
<!DOCTYPE svg PUBLIC "-//W3C//DTD SVG 1.1//EN" "http://www.w3.org/Graphics/SVG/1.1/DTD/svg11.dtd">
<svg xmlns="http://www.w3.org/2000/svg">
<metadata>Copyright (C) 2016 by original authors @ fontello.com</metadata>
<defs>
<font id="fontello" horiz-adv-x="1000" >
<font-face font-family="fontello" font-weight="400" font-stretch="normal" units-per-em="1000" ascent="850" descent="-150" />
<missing-glyph horiz-adv-x="1000" />
<glyph glyph-name="extension" unicode="&#xe800;" d="M516 180c-14 0-27-9-29-20l-47-182c-3-11 8-20 24-20l511 0c16 0 27 9 25 20l-44 182c-2 11-15 20-29 20h-411z m312-14c0 3 3 6 7 6h13c4 0 8-3 9-6l0-4c0-4-3-6-7-6l-13 0c-4 0-8 2-8 6l-1 4z m-72-24l22 0 1-14-23 0 0 14z m0-19l23 0 1-15-23 1-1 14z m1-20l23 0 1-14-24 0 0 14z m0-20l24 0 1-14-24 0-1 14z m1-20l24 0 1-14-25 0 0 14z m0-19l25 0 1-14-25 0-1 14z m-33 98h23l0-14-23 0 0 14z m0-19h23l0-14-23 0 0 14z m0-20l23 0 0-14-23 0 0 14z m0-20l24 0 0-14-24 0 0 14z m0-19l24-1 0-14-24 1 0 14z m0-20l24 0 1-14-25 0 0 14z m-30 98l22 0 0-14-23 0 1 14z m-1-19l23 0 0-14-23 0 0 14z m-1-20l23 0 0-14-23 0 0 14z m0-20l23 0 0-14-24 0 1 14z m-1-19l24 0 0-14-25 0 1 14z m-1-20l25 0-1-14-24 0 0 14z m-27 98h22l0-14-23 0 1 14z m-1-19l23 0-1-14-23 0 1 14z m-1-20l23 0-1-14-23 0 1 14z m-2-20l24 0-1-14-24 0 1 14z m-1-19l24 0-1-14-24 0 1 14z m-1-20l24 0-1-14-24 0 1 14z m-113-13l-25 0 3 14 25 0-3-14z m4 19l-25 0 3 14 24 0-2-14z m3 20l-24 0 3 14 23 0-2-14z m3 19l-23 1 3 13 23 0-3-14z m4 20l-23 0 2 14 23 0-2-14z m3 20l-23 0 3 14h22l-2-14z m17-98l-24 0 2 14 24 0-2-14z m3 19l-24 0 2 14 24 0-2-14z m3 20l-24 0 2 14 24 0-2-14z m2 19l-23 0 2 14 23 0-2-14z m3 20l-23 0 3 14 22 0-2-14z m3 20l-23 0 3 14h22l-2-14z m20-99l-24 1 1 14 25-1-2-14z m2 20l-24 0 2 14 24 0-2-14z m3 20l-24 0 2 14 23 0-1-14z m2 19l-24 0 2 14 23 0-1-14z m2 20l-23 0 2 14 22 0-1-14z m2 19h-23l2 15h22l-1-15z m23-98l-24 0 1 14 24 0-1-14z m2 20l-24 0 1 14 24 0-1-14z m1 19l-23 1 1 14 23 0-1-15z m2 20l-24 0 2 14 23 0-1-14z m1 20l-23 0 2 14 22 0-1-14z m2 19l-23 0 2 15 22-1-1-14z m135-162c1-3-3-6-8-6l-125 1c-5 0-8 3-8 6l3 51c1 3 5 5 9 5l118 0c5 0 8-3 9-6l2-51z m28 63l-25 0-1 15 25-1 1-14z m-2 20l-24 0-1 14 24 0 1-14z m-2 20l-23 0-1 14 23 0 1-14z m-1 20l-24 0 0 14 23 0 1-14z m-2 19l-23 0-1 15 23-1 1-14z m-1 20h-23l-1 14 23 0 1-14z m0 28h-14c-4 0-7 2-7 6l-1 4c0 3 3 6 7 6h13c4 0 8-3 8-6l1-4c0-4-3-6-7-6m42-127l-25 0-1 14 24 0 2-14z m-2 20l-25 0-1 14 24 0 2-14z m-3 20l-24 0-1 14 24 0 1-14z m-2 20l-23 0-2 14 24 0 1-14z m-2 19l-23 0-1 14 22 0 2-14z m-2 20l-23 0-1 14 22 0 2-14z m45-99l-25 0-2 14 25 0 2-14z m-3 20l-24 0-2 14 24 0 2-14z m-3 20l-24 0-1 14 23 0 2-14z m-3 19l-23 0-2 15 23 0 2-15z m-3 20l-23 0-1 14 22 0 2-14z m-2 20l-23 0-2 14 23 0 2-14z m48-99l-25 0-2 14 24 0 3-14z m-4 20l-24 0-2 14 24 0 2-14z m-3 19l-24 1-2 14 23 0 3-15z m-4 20l-23 0-2 15 23-1 2-14z m-3 20l-23 0-2 14h23l2-14z m-3 20l-23 0-2 14h22l3-14z m-6 34c0-4-2-6-7-6l-13 0c-4 0-8 2-8 6l-1 4c0 3 2 6 6 6h14c4 0 8-3 8-6l1-4z m40 0c1-4-2-6-6-6h-14c-4 0-7 2-8 6l-1 4c0 3 2 6 6 6l14 0c4 0 8-3 8-6l1-4z m3 354h-437c-4 0-8-5-8-11v-302c0-6 4-11 8-11h437c5 0 9 5 9 11v302c0 6-4 11-9 11m-11-294c0-5-4-9-8-9h-398c-5 0-8 4-8 9v264c0 5 3 9 8 9h398c4 0 8-4 8-9v-264z m57-272c0-3-4-5-9-5h-517c-5 0-8 2-8 5v2c0 2 3 4 8 4h517c5 0 9-2 9-4l0-2 0 0z m-452 371c0 0-1 146 1 153 3 7 179-3 179-3s-158-4-164-14c-6-9-16-136-16-136m377 67c0 0 1-146-1-153-3-7-179 3-179 3s159 4 164 14c6 9 16 136 16 136m-506-429l16 60v65c6 0 11 0 17 0l8 31c-9 0-17 0-25 0v114c15-1 29-1 44-2v31c-15 1-29 1-44 2v86h44v31h-44v86c15 0 29 1 44 2v31c-15-1-29-2-44-2v113c30 1 59 2 87 5 4-11 7-24 11-37 3-11 5-22 8-34h31c-5 27-12 52-19 75 18 3 35 6 52 9 17-24 32-53 44-84h33c-12 34-27 64-45 92 11 3 21 6 31 9 5-5 11-11 16-16 20-20 38-42 53-65-12-7-25-14-39-20h85c-2 4-4 7-5 10-5 10-10 19-16 27-17 28-38 53-61 75-9 8-17 16-26 23-70 57-159 91-256 91-96 0-185-34-255-91-9-7-17-15-26-23-23-22-44-47-61-75-6-8-11-17-16-27-30-56-47-121-47-190 0-68 17-133 47-190 5-9 10-18 16-27 17-27 38-52 61-75 9-8 17-16 26-23 70-56 159-90 255-90 0 1 0 2 0 3m219 706c-1 0-3-1-4-1-6-2-11-3-16-4-11 14-23 27-36 39 20-10 39-21 56-34m-54-12c-14-3-28-5-42-7-11 27-24 51-38 70 29-14 56-36 80-63m-149 80c11-3 22-11 33-23 15-16 29-39 42-68-24-2-49-4-75-4l0 95 0 0z m-100-17c-14-19-27-43-38-70-14 2-28 4-42 7 24 27 51 49 80 63m-85-370c0-35 3-68 6-100-29-5-56-12-81-20-10 38-16 78-17 120l92 0 0 0z m-92 31c1 42 7 82 17 119 7-2 15-4 22-6 19-5 39-10 59-13-4-32-6-66-6-100l-92 0 0 0z m47-174c18 5 36 9 56 12 6-39 14-76 25-109-18-2-35-5-52-9-20 29-37 63-50 100 7 2 14 4 21 6m56 304c-28 5-53 12-77 19 13 37 30 70 50 99 17-3 34-6 52-9-3-10-7-21-10-33-6-23-11-49-15-76m-4 192c-13-12-25-25-36-39-7 1-14 3-20 5 17 13 36 24 56 34m-102-73c5 5 11 11 16 16 9-3 17-6 26-8 2 0 3-1 5-1-19-29-35-62-47-97-2 1-4 1-6 2-17 7-33 15-47 23 15 23 33 45 53 65m-68-92c17-10 37-20 59-28-11-40-18-84-19-129h-82c3 56 17 109 42 157m-42-188h82c1-46 8-89 19-130-3-1-5-2-8-3-19-7-36-15-51-24-25 47-39 100-42 157m110-250c-20 20-38 42-53 66 15 9 33 17 53 25 12-36 28-68 47-97-11-3-21-6-31-9-5 5-11 10-16 15m46-39c1 1 3 1 4 2 6 1 11 2 16 4 11-15 23-28 36-39-20 9-39 21-56 33m54 13c14 3 28 5 42 7 11-28 24-51 38-70-29 14-56 35-80 63m149-81c-11 4-22 11-33 23-15 16-29 39-42 68 24 3 49 4 75 5v-96z m0 126c-30 0-59-2-86-5-4 12-8 24-12 37-6 23-11 47-15 73 36 5 74 8 113 9v-114z m0 145c-41-1-80-4-117-9-4 30-6 62-7 95h124v-86z m0 117h-123c0 33 2 65 6 95 37-5 76-8 117-9v-86z m0 117c-39 1-77 4-113 9 6 40 15 77 27 109 27-3 56-4 86-5v-113z m-75 148c13 29 27 52 42 68 11 12 22 20 33 23v-95c-26 0-51 2-75 4" horiz-adv-x="1000" />

<glyph glyph-name="frisbee" unicode="&#xe801;" d="M500 848c-276 0-500-224-500-500 0-276 224-500 500-500 276 0 500 224 500 500 0 276-224 500-500 500z m22-270h-44l10 99h24l10-99z m-22-653c-136 0-257 64-334 164l252 102c-56 30-95 89-95 157 0 2 0 5 0 7l-215-167c-20 50-31 104-31 160 0 214 159 391 365 419l-37-270c28 18 60 28 95 28 35 0 67-10 95-28l-37 270c206-28 365-205 365-419 0-56-11-110-31-160l-215 167c0-2 0-5 0-7 0-68-39-127-95-157l252-102c-77-100-198-164-334-164z m-290 269l80 58 22-38-90-41-12 21z m581 0l-12-21-91 41 22 38 81-58z m-129 154c0 89-73 162-162 162-89 0-161-73-161-162 0-89 72-161 161-161 89 0 162 72 162 161z m-162-102c-56 0-102 46-102 102 0 56 46 102 102 102 56 0 102-46 102-102 0-56-46-102-102-102z m0 188c-48 0-86-38-86-86 0-48 38-86 86-86 48 0 86 38 86 86 0 48-38 86-86 86z" horiz-adv-x="1000" />

<glyph glyph-name="gas-station" unicode="&#xe802;" d="M921 11c0-44-36-80-80-80h-678c-44 0-80 36-80 80v326h-81v-326c0-89 72-161 161-161h678c89 0 161 72 161 161v326h-81l0-326 0 0z m-838 678c0 44 36 80 80 80h678c44 0 80-36 80-80v-325h81v325c0 89-72 161-161 161h-678c-89 0-161-72-161-161v-325h81v325z m94-556c0-72 40-118 103-118 41 0 110 19 110 150v170 25c-4-9-10-17-16-25-11-14-23-24-23-24v-146c0-74-24-111-71-111-58 0-64 55-64 79 0 70 43 112 89 156 15 15 31 30 45 46 0 1 1 1 1 1 4 5 11 13 19 25 10 16 20 41 20 76v37h34v40h-34v16h34v40h-33c1 8 3 16 8 22 7 6 17 6 17 6l8 0 0 39-6 0c-5 0-27 0-45-16-15-14-22-33-22-59v-133c-2-26-14-47-31-68-7-9-15-17-24-26-6-6-12-12-18-18-48-45-101-97-101-184m610 379v-63c0-15-12-28-27-28h-252c-15 0-28 13-28 28v63h-40v-151-26-257c0-30 25-55 55-55h278c30 0 54 25 54 55v257 26 151h-40z m-14 173h-278c-30 0-55-24-55-54v-103h40v64c0 15 13 27 28 27h252c15 0 27-12 27-27v-64h40v103c0 30-24 54-54 54" horiz-adv-x="1000" />

<glyph glyph-name="hand-focus" unicode="&#xe803;" d="M413 711c-77 0-140-62-140-140 0-77 63-140 140-140 78 0 140 63 140 140 0 78-62 140-140 140m0-253c-63 0-114 51-114 113 0 63 51 114 114 114 63 0 114-51 114-114 0-62-51-113-114-113m0 392c-154 0-278-125-278-279 0-153 124-278 278-278 154 0 279 125 279 278 0 154-125 279-279 279m0-531c-139 0-252 113-252 252 0 140 113 253 252 253 139 0 253-113 253-253 0-139-114-252-253-252m446-222v218c0 29-24 53-53 53-29 0-52-24-52-53v-114h-26v114c0 29-24 53-53 53-29 0-52-24-52-53v-114h-26v114c0 29-24 53-53 53-29 0-52-24-52-53v-114h-26v354c0 29-24 53-53 53-29 0-52-24-52-53v-465c0-2 0-4 0-6v-122c0-62 37-112 83-112h333c45 0 82 50 82 112v127c0 3 0 5 0 8" horiz-adv-x="1000" />

<glyph glyph-name="lng" unicode="&#xe804;" d="M267 305l-16-82h-251l66 335h97l-50-253h154z m387 253l-67-335h-90l-77 195h-1l-38-195h-91l67 335h90l77-195h1l39 195h90l0 0z m346-97l-95-11c-8 26-26 39-52 39-26 0-47-14-62-42-15-28-23-58-23-90 0-19 6-34 17-47 11-13 26-19 43-19h1c20 0 37 6 52 17l7 35h-59l14 70h146l-31-157c-49-26-97-39-145-39-43 0-77 13-102 38-25 25-37 60-37 105 0 38 8 72 24 104 16 31 38 56 67 73 29 18 63 26 100 26 74 0 119-34 135-102z" horiz-adv-x="1000" />

<glyph glyph-name="nav-guide" unicode="&#xe805;" d="M500 621c134 0 243-109 243-244 0-73-29-139-68-195 59 31 132 95 133 195-1 170-138 308-308 308h-1c-170 0-308-138-308-308 0-100 74-164 132-195-39 56-68 122-68 195 0 135 109 244 244 244h1z m-1 229c-261 0-473-212-473-473 0-70 15-136 43-196 54-120 158-193 285-226l-9 18c-97 48-175 141-218 235-24 52-37 109-37 169 0 226 183 409 409 409 225 0 408-183 408-409 0-168-101-333-247-403l-7-20c185 57 318 216 318 423 0 261-211 473-472 473m137-616c13-167-79-373-79-373s-23-11-58-11c-35 0-59 11-59 11s-92 206-78 373c0 0 21 70 138 70 116 0 136-70 136-70m-33 209c0-58-47-104-104-104-58 0-104 46-104 104 0 57 46 104 104 104 57 0 104-47 104-104" horiz-adv-x="1000" />

<glyph glyph-name="nav-scan" unicode="&#xe806;" d="M850 704c-97 97-225 146-353 146-128 0-256-49-354-146-98-99-146-229-146-358 0-127 50-253 146-350 98-97 226-146 354-146h0c128 0 256 49 353 146 98 98 147 226 147 354 0 128-49 256-147 354m-60-647c-81-82-187-122-293-122-106 0-212 40-293 122-81 80-122 185-122 289 0 108 40 216 122 297 81 82 187 122 293 122 106 0 212-40 293-122 81-81 122-187 122-293 0-106-41-212-122-293m26 389c-15 51-43 99-84 140-5 5-15 5-20 0-6-6-6-16 0-21 36-37 61-80 75-125-19-10-32-30-32-53 0-27 19-50 45-56-5-71-34-141-88-196-60-59-137-88-215-88-78 0-155 29-215 88-3 4-7 8-10 12 3 6 5 12 5 20 0 22-18 40-40 40-3 0-5 0-8-1-18 35-29 72-34 110 26 6 44 29 44 56 0 24-15 45-36 54 10 38 27 74 52 107l52-52c-27-39-41-85-41-131 0-59 23-118 68-163 20-21 44-36 69-48 0 0 0-1 0-2 0-32 26-58 58-58 27 0 49 17 56 41 52 5 103 27 143 67 45 45 68 104 68 163 0 59-23 118-68 163-6 6-15 6-21 0-6-6-6-15 0-21 39-39 59-90 59-142 0-51-20-103-59-142-34-34-77-53-121-58-5 26-29 46-57 46-21 0-39-11-49-28-21 9-40 23-57 40-40 39-59 91-59 142 0 38 11 76 32 110l108-108c0 0 0 0 0-1 0-32 26-58 58-58 33 0 59 26 59 58 0 31-24 56-54 59l-214 213c-16 17-43 17-60 0-17-17-17-43 0-60l9-9c-29-37-49-80-60-124-29-3-52-28-52-58 0-27 19-50 44-56 4-43 17-86 38-125-5-7-8-15-8-24 0-23 18-41 41-41 4 0 8 1 12 2 4-5 8-9 12-13 65-65 151-98 236-98 85 0 170 33 235 98 61 60 93 137 97 216 25 7 43 30 43 56 0 32-25 57-56 59" horiz-adv-x="1000" />

<glyph glyph-name="search" unicode="&#xe807;" d="M513 651c30 29 64 51 101 66l-249 1-71 90c0 0-100 0-179 0-79 0-114-13-115-112 0-98 0-416 0-416l455 0c-64 119-45 270 58 371m412-45c-100 98-263 98-363 0-100-98-100-256 0-354 100-98 263-98 363 0 100 98 100 256 0 354m-308-300c-70 68-70 178 0 246 70 69 183 69 253 0 70-68 70-178 0-246-70-69-183-69-253 0m-88-83c-21 20-54 20-74 0l-3-3 74-72 3 3c20 20 20 52 0 72m-319-240c-20-20-20-52 0-72 20-20 53-20 74 0l218 214-74 72-218-214z" horiz-adv-x="1000" />

<glyph glyph-name="see-film" unicode="&#xe808;" d="M218 102c0 41-33 75-74 75-42 0-75-34-75-75 0-41 33-75 75-75 41 0 74 34 74 75m-74-97c-54 0-97-40-105-91h209c-7 51-51 91-104 91m312 97c0 41-34 75-75 75-41 0-74-34-74-75 0-41 33-75 74-75 41 0 75 34 75 75m-75-97c-53 0-97-40-104-91h209c-8 51-52 91-105 91m313 97c0 41-34 75-75 75-41 0-75-34-75-75 0-41 34-75 75-75 41 0 75 34 75 75m-75-97c-53 0-97-40-105-91h209c-7 51-51 91-104 91m312 97c0 41-33 75-75 75-41 0-74-34-74-75 0-41 33-75 74-75 42 0 75 34 75 75m-75-97c-53 0-97-40-104-91h209c-7 51-51 91-105 91m-356 763l-500 30v-578l500 21 500-21v578l-500-30z m440-508c-21 1-440 19-440 19s-419-18-440-19v498c21-1 441-26 441-26s418 25 439 26v-498z" horiz-adv-x="1000" />

<glyph glyph-name="sun" unicode="&#xe809;" d="M500 450c55 0 100-45 100-100 0-55-45-100-100-100-55 0-100 45-100 100 0 55 45 100 100 100m0 100c-110 0-200-90-200-200 0-110 90-200 200-200 111 0 200 90 200 200 0 110-89 200-200 200m0 100c-28 0-50 22-50 50v100c0 28 22 50 50 50 28 0 50-22 50-50v-100c0-28-22-50-50-50m248-102c-13 0-26 4-36 14-19 20-19 51 0 71l71 71c19 19 51 19 71 0 19-20 19-52 0-71l-71-71c-10-10-23-14-35-14m202-248h-100c-28 0-50 22-50 50 0 28 22 50 50 50h100c28 0 50-22 50-50 0-28-22-50-50-50m-132-318c-13 0-25 5-35 14l-71 71c-19 20-19 51 0 71 20 19 51 19 71 0l71-71c19-19 19-51 0-71-10-9-23-14-36-14m-318-132c-28 0-50 22-50 50v100c0 28 22 50 50 50 28 0 50-22 50-50v-100c0-28-22-50-50-50m-318 132c-13 0-26 5-36 14-19 20-19 52 0 71l71 71c20 20 51 20 71 0 19-20 19-51 0-71l-71-71c-10-9-22-14-35-14m-32 318h-100c-28 0-50 23-50 50 0 28 22 50 50 50h100c28 0 50-22 50-50 0-27-22-50-50-50m103 248c-13 0-26 4-36 14l-70 71c-20 19-20 51 0 71 19 19 51 19 70 0l71-71c20-20 20-51 0-71-10-10-23-14-35-14" horiz-adv-x="1000" />

<glyph glyph-name="trend" unicode="&#xe80a;" d="M253 286v-334h150v332l-75 64-75-62z m-250-334h149v251l-149-122v-129z m752 410v-410h149v538l-149-128z m-251-163v-247h149v323l-119-102-30 26z" horiz-adv-x="1000" />

<glyph glyph-name="cake" unicode="&#xe80b;" d="M532 382l-257 393c191 122 441 93 597-73 46-49 82-109 103-174l-443-146z m-83 24l-435 173c26 65 63 122 113 169 20 19 41 35 63 50l259-392z m69-87l445 144c57-172 9-362-124-487-189-177-484-166-661 23-124 131-160 323-94 492l434-172z" horiz-adv-x="1000" />

<glyph glyph-name="car" unicode="&#xe80c;" d="M498 850c1 0 3 0 4 0 1 0 3 0 4 0h-8z m386-148c-11 56-60 78-113 100-52 21-177 47-269 48-92-1-217-27-269-48-53-22-102-44-113-100l-26-305v-421h68v-66c0-80 113-80 113 0v66h454v-66c0-80 113-80 113 0v66h68v421l-26 305z m-550 71h336c33 0 33-50 0-50h-336c-33 0-33 50 0 50m-168-366l31 222c4 27 13 44 48 44h514c35 0 44-17 48-44l31-222c3-21-3-42-32-42h-608c-29 0-35 21-32 42m125-262c0-13-11-23-23-23h-93c-13 0-23 10-23 23v39c0 13 10 23 23 23h93c12 0 23-10 23-23v-39z m561 0c0-13-10-23-23-23h-93c-12 0-23 10-23 23v39c0 13 11 23 23 23h93c13 0 23-10 23-23v-39z" horiz-adv-x="1000" />

<glyph glyph-name="crm" unicode="&#xe80d;" d="M176 395c69 0 125 55 125 124 0 69-56 125-125 125-68 0-124-56-124-125 0-69 56-124 124-124m247-408h577v738h-577v-738z m528 77h-479v83h479l0-83 0 0z m0 167h-479v83h479l0-83 0 0z m0 167h-479v83h479l0-83 0 0z m0 167h-479v83h479l0-83 0 0z m-598-514v130c0 97-79 176-177 176s-176-79-176-176v-130h353l0 0z" horiz-adv-x="1000" />

<glyph glyph-name="cancel" unicode="&#xe80e;" d="M452 194q18-18 18-43t-18-43q-18-16-43-16t-43 16l-132 152-132-152q-18-16-43-16t-43 16q-16 18-16 43t16 43l138 156-138 158q-16 18-16 43t16 43q18 16 43 16t43-16l132-152 132 152q18 16 43 16t43-16q18-18 18-43t-18-43l-138-158z" horiz-adv-x="470" />

<glyph glyph-name="phone" unicode="&#xe80f;" d="M600 518c19 23 33 50 43 82 10 31 15 65 15 101 28-10 47-20 56-30 9-9 13-23 13-40 0-29-7-58-21-86-15-29-29-43-45-43-5 0-13 1-23 4-10 2-23 7-38 12m-431-479c-44 55-75 107-94 156-20 49-29 101-29 155 0 61 11 118 34 174 24 56 57 106 99 149 43 42 93 76 148 99 56 23 114 34 175 34 60 0 118-11 174-34s104-56 147-99c43-43 76-93 99-148 24-56 35-114 35-174 0-60-11-118-35-174-23-56-56-105-99-148-43-43-92-76-148-99-56-24-114-35-173-35-73 0-132 11-176 35-44 23-66 54-66 92 0 8 1 17 4 24 3 8 8 16 15 25 7-6 13-11 18-14 6-3 10-4 15-4 6 0 16 6 30 17 14 12 28 27 41 44 12 16 21 33 29 52 8 19 12 32 12 37 0 3-4 10-14 22-9 11-14 22-14 34 0 15 4 35 13 60 9 25 21 55 38 90 20 39 35 67 48 83 12 16 24 26 37 30 3 1 8 2 14 3 22 2 39 12 50 28 9 17 18 39 26 65 7 26 11 49 11 67 0 15-2 25-7 30-5 5-14 8-29 8-24 0-44-2-60-5-17-4-29-8-38-15-10-7-27-25-50-55-23-29-46-62-70-99-43-68-79-141-107-218-28-77-42-135-42-174 0-8 2-15 5-24 3-8 9-19 18-33-12-15-21-29-26-43-6-14-8-29-8-43 0-48 25-88 77-118 52-31 121-46 205-46 66 0 129 13 191 38 62 26 116 62 163 109 47 47 83 101 109 162 25 62 38 126 38 192 0 66-13 129-38 190-25 60-62 115-109 162-47 48-101 84-162 109-61 25-125 38-192 38-66 0-130-13-190-38-62-25-115-62-162-109-47-46-83-100-109-162-25-61-38-125-38-191 0-57 9-111 26-160 18-49 44-93 78-131 7-9 14-15 21-19 7-5 13-7 19-7 2 0 5 1 9 2 4 1 8 2 14 4m168-2c28 20 51 44 70 70 18 26 31 55 39 87 20-13 33-24 40-32 7-8 10-16 10-25 0-22-11-49-34-80-23-31-45-47-66-47-6 0-15 3-25 7-10 5-21 11-34 20" horiz-adv-x="1000" />

<glyph glyph-name="lock-open-empty" unicode="&#xe810;" d="M409 797q115 0 197-82t82-196l0-447q0-69-49-119t-118-50l-336 0q-70 0-118 50t-49 119l0 390 558 0 0 57q0 69-48 117t-118 49-119-49-50-117l-111 0q0 115 82 196t197 82z m112-781q23 0 39 16t16 40l0 279-446 0 0-279q0-24 16-40t39-16l336 0z m-112 168q0-23-16-40t-40-17q-23 0-39 16t-16 41q0 23 16 39t39 16 40-16 16-39z" horiz-adv-x="705" />

<glyph glyph-name="user" unicode="&#xe811;" d="M353 351q139 0 237-99t98-236q0-47-33-80t-79-33l-446 0q-46 0-79 33t-33 80q0 138 98 236t237 99z m-167 279q0 167 167 167 168 0 168-167 0-168-168-168-167 0-167 168z" horiz-adv-x="705" />

<glyph glyph-name="search-1" unicode="&#xe812;" d="M643 386q0 103-73 176t-177 74-177-74-73-176 73-177 177-73 177 73 73 177z m286-465q0-29-22-50t-50-21q-30 0-50 21l-191 191q-100-69-223-69-80 0-153 31t-125 84-84 125-31 153 31 152 84 126 125 84 153 31 153-31 125-84 84-126 31-152q0-123-69-223l191-191q21-21 21-51z" horiz-adv-x="928.6" />

<glyph glyph-name="direction" unicode="&#xe813;" d="M782 655l-357-714q-10-20-32-20-3 0-8 1-13 3-20 13t-8 22v322h-321q-13 0-22 7t-13 20 2 23 17 17l714 357q7 4 16 4 15 0 25-10 9-8 10-20t-3-22z" horiz-adv-x="785.7" />

<glyph glyph-name="mail-alt" unicode="&#xe814;" d="M1000 454v-443q0-37-26-63t-63-27h-822q-36 0-63 27t-26 63v443q25-27 56-49 202-137 278-192 32-24 51-37t53-27 61-13h2q28 0 61 13t53 27 51 37q95 68 278 192 32 22 56 49z m0 164q0-44-27-84t-68-69q-210-146-262-181-5-4-23-17t-30-22-29-18-32-15-28-5h-2q-12 0-27 5t-32 15-30 18-30 22-23 17q-51 35-147 101t-114 80q-35 23-65 64t-31 77q0 43 23 72t66 29h822q36 0 63-26t26-63z" horiz-adv-x="1000" />

<glyph glyph-name="phone-1" unicode="&#xe815;" d="M786 158q0-15-6-39t-12-38q-11-28-68-60-52-28-103-28-15 0-30 2t-32 7-26 8-31 11-28 10q-54 20-97 47-72 44-148 120t-120 148q-27 43-46 97-2 5-10 28t-12 31-8 26-7 32-2 29q0 52 29 104 31 57 59 68 14 6 38 12t39 6q8 0 12-2 10-3 30-42 6-11 16-31t20-35 17-30q2-2 10-14t12-20 4-16q0-11-16-27t-35-31-34-30-16-25q0-5 3-13t4-11 8-14 7-10q42-77 97-132t131-97q1 0 10-6t14-8 11-5 13-2q10 0 25 16t30 34 31 35 28 16q7 0 15-4t20-12 14-10q14-8 30-17t36-20 30-17q39-19 42-29 2-4 2-12z" horiz-adv-x="785.7" />

<glyph glyph-name="wechat" unicode="&#xe816;" d="M324 593q0 23-14 37t-37 14q-24 0-42-15t-19-36q0-22 19-36t42-14q23 0 37 13t14 37z m414-283q0 15-14 28t-36 12q-16 0-28-13t-13-27q0-16 13-28t28-13q22 0 36 12t14 29z m-131 283q0 23-14 37t-37 14q-24 0-42-15t-18-36q0-22 18-36t42-14q23 0 37 13t14 37z m354-283q0 15-15 28t-36 12q-15 0-27-13t-13-27q0-16 13-28t27-13q22 0 36 12t15 29z m-148 221q-18 3-40 3-94 0-173-43t-125-117-45-160q0-44 13-85-20-2-38-2-15 0-28 1t-31 4-25 4-30 6-28 5l-141-70 40 121q-162 114-162 274 0 94 54 173t148 125 203 45q98 0 185-36t146-102 77-146z m330-313q0-65-38-124t-104-108l31-101-111 60q-84-20-122-20-94 0-173 39t-125 107-46 147 46 148 125 107 173 39q90 0 169-39t127-108 48-147z" horiz-adv-x="1142.9" />

<glyph glyph-name="pyq" unicode="&#xe817;" d="M361 830l329-404 9 383c-61 26-128 41-199 41-48 0-95-7-139-20m-299-239l519-52-265 276c-62-24-120-61-169-111-35-34-63-72-85-113m-42-380l404 329-383 9c-26-61-41-128-41-199 0-48 7-95 20-139m239-299l53 519-277-265c24-62 61-120 112-170 34-34 71-62 112-84m380-42l-329 404-9-383c61-26 128-41 199-41 48 0 95 7 139 20m299 239l-518 53 264-277c62 24 120 61 170 111 34 35 62 72 84 113m42 380l-404-329 383-9c26 61 41 128 41 199 0 48-7 95-20 139m-239 299l-52-518 276 264c-24 62-61 120-111 170-34 34-72 62-113 84" horiz-adv-x="1000" />

<glyph glyph-name="android" unicode="&#xe818;" d="M843 523c-31 0-56-25-56-55v-222c0-30 25-55 56-55s55 25 55 55v222c0 30-25 55-55 55m-665 0c-31 0-55-25-55-55v-222c0-30 24-55 55-55 30 0 55 25 55 55v222c0 30-25 55-55 55m83-360c0-46 37-83 83-83h28v-111c0-30 25-55 55-55 31 0 56 25 56 55v111h55v-111c0-30 25-55 56-55s55 25 55 55v111h28c46 0 83 37 83 83v305h-499v-305z m352 560l35 67c2 4 1 8-3 10-3 1-7 0-9-3l-36-69c-28 11-58 17-90 17-31 0-62-6-89-17l-36 69c-2 3-6 4-9 3-4-2-5-6-3-10l35-67c-79-36-136-110-145-200h495c-10 90-66 164-145 200m-213-157c-23 0-41 18-41 41s18 40 41 40c22 0 40-18 40-40s-18-41-40-41m221 0c-22 0-40 18-40 41s18 40 40 40c22 0 40-18 40-40s-18-41-40-41" horiz-adv-x="1000" />

<glyph glyph-name="sy" unicode="&#xe819;" d="M393 229c0 59 48 107 107 107 59 0 107-48 107-107s-48-107-107-107c-59 0-107 48-107 107m-206 0c0-173 140-313 313-313 173 0 313 140 313 313 0 173-140 313-313 313-173 0-313-140-313-313m306 89c137-186 179-305 121-380 117 38 268 215 169 428-60 131-204 286-166 418 0 0-337-177-124-466m-276 48c-98-213 52-390 169-428-58 75-16 194 121 380 213 289-124 466-124 466 38-132-106-287-166-418" horiz-adv-x="1000" />

<glyph glyph-name="weibo" unicode="&#xf18a;" d="M377 134q11 19 6 38t-25 28q-19 8-41 0t-33-25q-13-19-8-38t24-29 42-1 35 27z m52 67q5 7 2 15t-10 10q-7 3-16 0t-12-10q-9-18 8-26 8-2 16 1t12 10z m97-60q-25-57-88-83t-125-7q-60 19-82 71t3 104q27 52 85 78t117 10q62-16 89-66t1-107z m174 90q-5 53-49 94t-117 61-153 12q-124-13-206-79t-74-148q5-53 50-94t116-61 153-12q125 13 206 79t74 148z m172-3q0-38-20-77t-61-77-94-65-126-47-151-17-154 19-134 52-96 84-36 111q0 64 39 137t110 144q94 94 191 131t137-3q36-36 11-117-2-8 0-11t5-4 8 0 8 2l3 1q78 33 138 33t85-34q25-35 0-99-1-7-3-11t3-7 7-5 9-3q32-10 58-26t44-46 19-65z m-41 349q23-27 30-61t-3-66q-5-12-17-18t-25-3q-12 5-19 17t-2 25q11 35-13 62t-60 19q-13-3-25 5t-14 20q-3 14 5 25t20 14q34 7 67-3t56-36z m101 91q49-54 63-125t-8-134q-5-15-19-23t-29-2-22 19-3 29q16 46 6 96t-45 88q-35 39-83 54t-96 4q-16-3-29 6t-17 24 5 29 25 16q68 15 136-6t116-75z" horiz-adv-x="1000" />

<glyph glyph-name="qq" unicode="&#xf1d6;" d="M151 400q-5 11-5 29 0 11 6 28t14 25q-1 12 4 29t13 24q0 78 51 161t122 117q77 37 180 37 75 0 149-31 27-11 50-26t40-32 30-38 24-41 18-47 14-50 12-55l1-2q31-47 31-84 0-8-5-23t-5-21q0 0 0-2t2-2 1-2q43-64 68-120t24-116q0-24-11-56t-31-32q-5 0-11 4t-10 10-11 14-9 15-7 15-5 9q-1 1-2 1l-3-2q-33-86-74-125 12-11 35-21t38-23 20-37q-1-2-2-9t-4-10q-36-54-169-54-29 0-61 5t-55 11-58 17q-9 3-13 4-8 2-26 3t-22 0q-23-25-71-36t-94-11q-20 0-39 1t-52 5-56 11-42 23-18 35q0 23 6 33t23 28q6 1 22 7t28 7q2 0 8 1 1 1 1 2l-1 2q-27 6-60 58t-41 88l-3 2q-2 0-7-12-10-23-30-41t-43-21h-1q-2 0-3 2t-3 3q-13 31-13 56 0 154 141 260z" horiz-adv-x="1000" />
</font>
</defs>
</svg>
